<mxfile host="app.diagrams.net" modified="2023-03-24T09:08:54.696Z" agent="5.0 (Windows NT 10.0; Win64; x64) AppleWebKit/537.36 (KHTML, like Gecko) Chrome/111.0.0.0 Safari/537.36" etag="TC9833GHKTzfsdYZ3tw8" version="21.0.6" type="github">
  <diagram name="Page-1" id="pN7mRfcDiqV7qpgEuXb4">
    <mxGraphModel dx="2150" dy="1405" grid="1" gridSize="10" guides="1" tooltips="1" connect="1" arrows="1" fold="1" page="0" pageScale="1" pageWidth="2000" pageHeight="2000" math="0" shadow="0">
      <root>
        <mxCell id="0" />
        <mxCell id="1" parent="0" />
        <mxCell id="Vd45wIL9K_rjo-z1Z2vt-36" value="User" style="shape=table;startSize=40;container=1;collapsible=1;childLayout=tableLayout;fixedRows=1;rowLines=0;fontStyle=1;align=center;resizeLast=1;html=1;fontSize=16;" vertex="1" parent="1">
          <mxGeometry y="120" width="200" height="400" as="geometry" />
        </mxCell>
        <mxCell id="Vd45wIL9K_rjo-z1Z2vt-37" value="" style="shape=tableRow;horizontal=0;startSize=0;swimlaneHead=0;swimlaneBody=0;fillColor=none;collapsible=0;dropTarget=0;points=[[0,0.5],[1,0.5]];portConstraint=eastwest;top=0;left=0;right=0;bottom=1;fontSize=16;" vertex="1" parent="Vd45wIL9K_rjo-z1Z2vt-36">
          <mxGeometry y="40" width="200" height="40" as="geometry" />
        </mxCell>
        <mxCell id="Vd45wIL9K_rjo-z1Z2vt-38" value="PK" style="shape=partialRectangle;connectable=0;fillColor=none;top=0;left=0;bottom=0;right=0;fontStyle=1;overflow=hidden;whiteSpace=wrap;html=1;fontSize=16;" vertex="1" parent="Vd45wIL9K_rjo-z1Z2vt-37">
          <mxGeometry width="40.00000000000006" height="40" as="geometry">
            <mxRectangle width="40.00000000000006" height="40" as="alternateBounds" />
          </mxGeometry>
        </mxCell>
        <mxCell id="Vd45wIL9K_rjo-z1Z2vt-39" value="Id" style="shape=partialRectangle;connectable=0;fillColor=none;top=0;left=0;bottom=0;right=0;align=left;spacingLeft=6;fontStyle=5;overflow=hidden;whiteSpace=wrap;html=1;fontSize=16;" vertex="1" parent="Vd45wIL9K_rjo-z1Z2vt-37">
          <mxGeometry x="40.00000000000006" width="159.99999999999994" height="40" as="geometry">
            <mxRectangle width="159.99999999999994" height="40" as="alternateBounds" />
          </mxGeometry>
        </mxCell>
        <mxCell id="Vd45wIL9K_rjo-z1Z2vt-46" value="" style="shape=tableRow;horizontal=0;startSize=0;swimlaneHead=0;swimlaneBody=0;fillColor=none;collapsible=0;dropTarget=0;points=[[0,0.5],[1,0.5]];portConstraint=eastwest;top=0;left=0;right=0;bottom=0;fontSize=16;" vertex="1" parent="Vd45wIL9K_rjo-z1Z2vt-36">
          <mxGeometry y="80" width="200" height="40" as="geometry" />
        </mxCell>
        <mxCell id="Vd45wIL9K_rjo-z1Z2vt-47" value="" style="shape=partialRectangle;connectable=0;fillColor=none;top=0;left=0;bottom=0;right=0;editable=1;overflow=hidden;whiteSpace=wrap;html=1;fontSize=16;" vertex="1" parent="Vd45wIL9K_rjo-z1Z2vt-46">
          <mxGeometry width="40.00000000000006" height="40" as="geometry">
            <mxRectangle width="40.00000000000006" height="40" as="alternateBounds" />
          </mxGeometry>
        </mxCell>
        <mxCell id="Vd45wIL9K_rjo-z1Z2vt-48" value="First Name" style="shape=partialRectangle;connectable=0;fillColor=none;top=0;left=0;bottom=0;right=0;align=left;spacingLeft=6;overflow=hidden;whiteSpace=wrap;html=1;fontSize=16;" vertex="1" parent="Vd45wIL9K_rjo-z1Z2vt-46">
          <mxGeometry x="40.00000000000006" width="159.99999999999994" height="40" as="geometry">
            <mxRectangle width="159.99999999999994" height="40" as="alternateBounds" />
          </mxGeometry>
        </mxCell>
        <mxCell id="Vd45wIL9K_rjo-z1Z2vt-61" style="shape=tableRow;horizontal=0;startSize=0;swimlaneHead=0;swimlaneBody=0;fillColor=none;collapsible=0;dropTarget=0;points=[[0,0.5],[1,0.5]];portConstraint=eastwest;top=0;left=0;right=0;bottom=0;fontSize=16;" vertex="1" parent="Vd45wIL9K_rjo-z1Z2vt-36">
          <mxGeometry y="120" width="200" height="40" as="geometry" />
        </mxCell>
        <mxCell id="Vd45wIL9K_rjo-z1Z2vt-62" style="shape=partialRectangle;connectable=0;fillColor=none;top=0;left=0;bottom=0;right=0;editable=1;overflow=hidden;whiteSpace=wrap;html=1;fontSize=16;" vertex="1" parent="Vd45wIL9K_rjo-z1Z2vt-61">
          <mxGeometry width="40.00000000000006" height="40" as="geometry">
            <mxRectangle width="40.00000000000006" height="40" as="alternateBounds" />
          </mxGeometry>
        </mxCell>
        <mxCell id="Vd45wIL9K_rjo-z1Z2vt-63" value="Middle Name" style="shape=partialRectangle;connectable=0;fillColor=none;top=0;left=0;bottom=0;right=0;align=left;spacingLeft=6;overflow=hidden;whiteSpace=wrap;html=1;fontSize=16;" vertex="1" parent="Vd45wIL9K_rjo-z1Z2vt-61">
          <mxGeometry x="40.00000000000006" width="159.99999999999994" height="40" as="geometry">
            <mxRectangle width="159.99999999999994" height="40" as="alternateBounds" />
          </mxGeometry>
        </mxCell>
        <mxCell id="Vd45wIL9K_rjo-z1Z2vt-58" style="shape=tableRow;horizontal=0;startSize=0;swimlaneHead=0;swimlaneBody=0;fillColor=none;collapsible=0;dropTarget=0;points=[[0,0.5],[1,0.5]];portConstraint=eastwest;top=0;left=0;right=0;bottom=0;fontSize=16;" vertex="1" parent="Vd45wIL9K_rjo-z1Z2vt-36">
          <mxGeometry y="160" width="200" height="40" as="geometry" />
        </mxCell>
        <mxCell id="Vd45wIL9K_rjo-z1Z2vt-59" style="shape=partialRectangle;connectable=0;fillColor=none;top=0;left=0;bottom=0;right=0;editable=1;overflow=hidden;whiteSpace=wrap;html=1;fontSize=16;" vertex="1" parent="Vd45wIL9K_rjo-z1Z2vt-58">
          <mxGeometry width="40.00000000000006" height="40" as="geometry">
            <mxRectangle width="40.00000000000006" height="40" as="alternateBounds" />
          </mxGeometry>
        </mxCell>
        <mxCell id="Vd45wIL9K_rjo-z1Z2vt-60" value="Last Name" style="shape=partialRectangle;connectable=0;fillColor=none;top=0;left=0;bottom=0;right=0;align=left;spacingLeft=6;overflow=hidden;whiteSpace=wrap;html=1;fontSize=16;" vertex="1" parent="Vd45wIL9K_rjo-z1Z2vt-58">
          <mxGeometry x="40.00000000000006" width="159.99999999999994" height="40" as="geometry">
            <mxRectangle width="159.99999999999994" height="40" as="alternateBounds" />
          </mxGeometry>
        </mxCell>
        <mxCell id="Vd45wIL9K_rjo-z1Z2vt-55" style="shape=tableRow;horizontal=0;startSize=0;swimlaneHead=0;swimlaneBody=0;fillColor=none;collapsible=0;dropTarget=0;points=[[0,0.5],[1,0.5]];portConstraint=eastwest;top=0;left=0;right=0;bottom=0;fontSize=16;" vertex="1" parent="Vd45wIL9K_rjo-z1Z2vt-36">
          <mxGeometry y="200" width="200" height="40" as="geometry" />
        </mxCell>
        <mxCell id="Vd45wIL9K_rjo-z1Z2vt-56" style="shape=partialRectangle;connectable=0;fillColor=none;top=0;left=0;bottom=0;right=0;editable=1;overflow=hidden;whiteSpace=wrap;html=1;fontSize=16;" vertex="1" parent="Vd45wIL9K_rjo-z1Z2vt-55">
          <mxGeometry width="40.00000000000006" height="40" as="geometry">
            <mxRectangle width="40.00000000000006" height="40" as="alternateBounds" />
          </mxGeometry>
        </mxCell>
        <mxCell id="Vd45wIL9K_rjo-z1Z2vt-57" value="User Name" style="shape=partialRectangle;connectable=0;fillColor=none;top=0;left=0;bottom=0;right=0;align=left;spacingLeft=6;overflow=hidden;whiteSpace=wrap;html=1;fontSize=16;" vertex="1" parent="Vd45wIL9K_rjo-z1Z2vt-55">
          <mxGeometry x="40.00000000000006" width="159.99999999999994" height="40" as="geometry">
            <mxRectangle width="159.99999999999994" height="40" as="alternateBounds" />
          </mxGeometry>
        </mxCell>
        <mxCell id="Vd45wIL9K_rjo-z1Z2vt-52" style="shape=tableRow;horizontal=0;startSize=0;swimlaneHead=0;swimlaneBody=0;fillColor=none;collapsible=0;dropTarget=0;points=[[0,0.5],[1,0.5]];portConstraint=eastwest;top=0;left=0;right=0;bottom=0;fontSize=16;" vertex="1" parent="Vd45wIL9K_rjo-z1Z2vt-36">
          <mxGeometry y="240" width="200" height="40" as="geometry" />
        </mxCell>
        <mxCell id="Vd45wIL9K_rjo-z1Z2vt-53" style="shape=partialRectangle;connectable=0;fillColor=none;top=0;left=0;bottom=0;right=0;editable=1;overflow=hidden;whiteSpace=wrap;html=1;fontSize=16;" vertex="1" parent="Vd45wIL9K_rjo-z1Z2vt-52">
          <mxGeometry width="40.00000000000006" height="40" as="geometry">
            <mxRectangle width="40.00000000000006" height="40" as="alternateBounds" />
          </mxGeometry>
        </mxCell>
        <mxCell id="Vd45wIL9K_rjo-z1Z2vt-54" value="Gender" style="shape=partialRectangle;connectable=0;fillColor=none;top=0;left=0;bottom=0;right=0;align=left;spacingLeft=6;overflow=hidden;whiteSpace=wrap;html=1;fontSize=16;" vertex="1" parent="Vd45wIL9K_rjo-z1Z2vt-52">
          <mxGeometry x="40.00000000000006" width="159.99999999999994" height="40" as="geometry">
            <mxRectangle width="159.99999999999994" height="40" as="alternateBounds" />
          </mxGeometry>
        </mxCell>
        <mxCell id="Vd45wIL9K_rjo-z1Z2vt-49" style="shape=tableRow;horizontal=0;startSize=0;swimlaneHead=0;swimlaneBody=0;fillColor=none;collapsible=0;dropTarget=0;points=[[0,0.5],[1,0.5]];portConstraint=eastwest;top=0;left=0;right=0;bottom=0;fontSize=16;" vertex="1" parent="Vd45wIL9K_rjo-z1Z2vt-36">
          <mxGeometry y="280" width="200" height="40" as="geometry" />
        </mxCell>
        <mxCell id="Vd45wIL9K_rjo-z1Z2vt-50" style="shape=partialRectangle;connectable=0;fillColor=none;top=0;left=0;bottom=0;right=0;editable=1;overflow=hidden;whiteSpace=wrap;html=1;fontSize=16;" vertex="1" parent="Vd45wIL9K_rjo-z1Z2vt-49">
          <mxGeometry width="40.00000000000006" height="40" as="geometry">
            <mxRectangle width="40.00000000000006" height="40" as="alternateBounds" />
          </mxGeometry>
        </mxCell>
        <mxCell id="Vd45wIL9K_rjo-z1Z2vt-51" value="Birthday" style="shape=partialRectangle;connectable=0;fillColor=none;top=0;left=0;bottom=0;right=0;align=left;spacingLeft=6;overflow=hidden;whiteSpace=wrap;html=1;fontSize=16;" vertex="1" parent="Vd45wIL9K_rjo-z1Z2vt-49">
          <mxGeometry x="40.00000000000006" width="159.99999999999994" height="40" as="geometry">
            <mxRectangle width="159.99999999999994" height="40" as="alternateBounds" />
          </mxGeometry>
        </mxCell>
        <mxCell id="Vd45wIL9K_rjo-z1Z2vt-100" style="shape=tableRow;horizontal=0;startSize=0;swimlaneHead=0;swimlaneBody=0;fillColor=none;collapsible=0;dropTarget=0;points=[[0,0.5],[1,0.5]];portConstraint=eastwest;top=0;left=0;right=0;bottom=0;fontSize=16;" vertex="1" parent="Vd45wIL9K_rjo-z1Z2vt-36">
          <mxGeometry y="320" width="200" height="40" as="geometry" />
        </mxCell>
        <mxCell id="Vd45wIL9K_rjo-z1Z2vt-101" style="shape=partialRectangle;connectable=0;fillColor=none;top=0;left=0;bottom=0;right=0;editable=1;overflow=hidden;whiteSpace=wrap;html=1;fontSize=16;" vertex="1" parent="Vd45wIL9K_rjo-z1Z2vt-100">
          <mxGeometry width="40.00000000000006" height="40" as="geometry">
            <mxRectangle width="40.00000000000006" height="40" as="alternateBounds" />
          </mxGeometry>
        </mxCell>
        <mxCell id="Vd45wIL9K_rjo-z1Z2vt-102" value="School" style="shape=partialRectangle;connectable=0;fillColor=none;top=0;left=0;bottom=0;right=0;align=left;spacingLeft=6;overflow=hidden;whiteSpace=wrap;html=1;fontSize=16;" vertex="1" parent="Vd45wIL9K_rjo-z1Z2vt-100">
          <mxGeometry x="40.00000000000006" width="159.99999999999994" height="40" as="geometry">
            <mxRectangle width="159.99999999999994" height="40" as="alternateBounds" />
          </mxGeometry>
        </mxCell>
        <mxCell id="Vd45wIL9K_rjo-z1Z2vt-97" style="shape=tableRow;horizontal=0;startSize=0;swimlaneHead=0;swimlaneBody=0;fillColor=none;collapsible=0;dropTarget=0;points=[[0,0.5],[1,0.5]];portConstraint=eastwest;top=0;left=0;right=0;bottom=0;fontSize=16;" vertex="1" parent="Vd45wIL9K_rjo-z1Z2vt-36">
          <mxGeometry y="360" width="200" height="40" as="geometry" />
        </mxCell>
        <mxCell id="Vd45wIL9K_rjo-z1Z2vt-98" style="shape=partialRectangle;connectable=0;fillColor=none;top=0;left=0;bottom=0;right=0;editable=1;overflow=hidden;whiteSpace=wrap;html=1;fontSize=16;" vertex="1" parent="Vd45wIL9K_rjo-z1Z2vt-97">
          <mxGeometry width="40.00000000000006" height="40" as="geometry">
            <mxRectangle width="40.00000000000006" height="40" as="alternateBounds" />
          </mxGeometry>
        </mxCell>
        <mxCell id="Vd45wIL9K_rjo-z1Z2vt-99" value="Role" style="shape=partialRectangle;connectable=0;fillColor=none;top=0;left=0;bottom=0;right=0;align=left;spacingLeft=6;overflow=hidden;whiteSpace=wrap;html=1;fontSize=16;" vertex="1" parent="Vd45wIL9K_rjo-z1Z2vt-97">
          <mxGeometry x="40.00000000000006" width="159.99999999999994" height="40" as="geometry">
            <mxRectangle width="159.99999999999994" height="40" as="alternateBounds" />
          </mxGeometry>
        </mxCell>
        <mxCell id="Vd45wIL9K_rjo-z1Z2vt-103" value="School" style="shape=table;startSize=40;container=1;collapsible=1;childLayout=tableLayout;fixedRows=1;rowLines=0;fontStyle=1;align=center;resizeLast=1;html=1;fontSize=16;" vertex="1" parent="1">
          <mxGeometry x="360" y="120" width="200" height="160" as="geometry" />
        </mxCell>
        <mxCell id="Vd45wIL9K_rjo-z1Z2vt-104" value="" style="shape=tableRow;horizontal=0;startSize=0;swimlaneHead=0;swimlaneBody=0;fillColor=none;collapsible=0;dropTarget=0;points=[[0,0.5],[1,0.5]];portConstraint=eastwest;top=0;left=0;right=0;bottom=1;fontSize=16;" vertex="1" parent="Vd45wIL9K_rjo-z1Z2vt-103">
          <mxGeometry y="40" width="200" height="40" as="geometry" />
        </mxCell>
        <mxCell id="Vd45wIL9K_rjo-z1Z2vt-105" value="PK" style="shape=partialRectangle;connectable=0;fillColor=none;top=0;left=0;bottom=0;right=0;fontStyle=1;overflow=hidden;whiteSpace=wrap;html=1;fontSize=16;" vertex="1" parent="Vd45wIL9K_rjo-z1Z2vt-104">
          <mxGeometry width="40.00000000000006" height="40" as="geometry">
            <mxRectangle width="40.00000000000006" height="40" as="alternateBounds" />
          </mxGeometry>
        </mxCell>
        <mxCell id="Vd45wIL9K_rjo-z1Z2vt-106" value="Id" style="shape=partialRectangle;connectable=0;fillColor=none;top=0;left=0;bottom=0;right=0;align=left;spacingLeft=6;fontStyle=5;overflow=hidden;whiteSpace=wrap;html=1;fontSize=16;" vertex="1" parent="Vd45wIL9K_rjo-z1Z2vt-104">
          <mxGeometry x="40.00000000000006" width="159.99999999999994" height="40" as="geometry">
            <mxRectangle width="159.99999999999994" height="40" as="alternateBounds" />
          </mxGeometry>
        </mxCell>
        <mxCell id="Vd45wIL9K_rjo-z1Z2vt-107" value="" style="shape=tableRow;horizontal=0;startSize=0;swimlaneHead=0;swimlaneBody=0;fillColor=none;collapsible=0;dropTarget=0;points=[[0,0.5],[1,0.5]];portConstraint=eastwest;top=0;left=0;right=0;bottom=0;fontSize=16;" vertex="1" parent="Vd45wIL9K_rjo-z1Z2vt-103">
          <mxGeometry y="80" width="200" height="40" as="geometry" />
        </mxCell>
        <mxCell id="Vd45wIL9K_rjo-z1Z2vt-108" value="" style="shape=partialRectangle;connectable=0;fillColor=none;top=0;left=0;bottom=0;right=0;editable=1;overflow=hidden;whiteSpace=wrap;html=1;fontSize=16;" vertex="1" parent="Vd45wIL9K_rjo-z1Z2vt-107">
          <mxGeometry width="40.00000000000006" height="40" as="geometry">
            <mxRectangle width="40.00000000000006" height="40" as="alternateBounds" />
          </mxGeometry>
        </mxCell>
        <mxCell id="Vd45wIL9K_rjo-z1Z2vt-109" value="Name" style="shape=partialRectangle;connectable=0;fillColor=none;top=0;left=0;bottom=0;right=0;align=left;spacingLeft=6;overflow=hidden;whiteSpace=wrap;html=1;fontSize=16;" vertex="1" parent="Vd45wIL9K_rjo-z1Z2vt-107">
          <mxGeometry x="40.00000000000006" width="159.99999999999994" height="40" as="geometry">
            <mxRectangle width="159.99999999999994" height="40" as="alternateBounds" />
          </mxGeometry>
        </mxCell>
        <mxCell id="Vd45wIL9K_rjo-z1Z2vt-110" style="shape=tableRow;horizontal=0;startSize=0;swimlaneHead=0;swimlaneBody=0;fillColor=none;collapsible=0;dropTarget=0;points=[[0,0.5],[1,0.5]];portConstraint=eastwest;top=0;left=0;right=0;bottom=0;fontSize=16;" vertex="1" parent="Vd45wIL9K_rjo-z1Z2vt-103">
          <mxGeometry y="120" width="200" height="40" as="geometry" />
        </mxCell>
        <mxCell id="Vd45wIL9K_rjo-z1Z2vt-111" style="shape=partialRectangle;connectable=0;fillColor=none;top=0;left=0;bottom=0;right=0;editable=1;overflow=hidden;whiteSpace=wrap;html=1;fontSize=16;" vertex="1" parent="Vd45wIL9K_rjo-z1Z2vt-110">
          <mxGeometry width="40.00000000000006" height="40" as="geometry">
            <mxRectangle width="40.00000000000006" height="40" as="alternateBounds" />
          </mxGeometry>
        </mxCell>
        <mxCell id="Vd45wIL9K_rjo-z1Z2vt-112" value="Location" style="shape=partialRectangle;connectable=0;fillColor=none;top=0;left=0;bottom=0;right=0;align=left;spacingLeft=6;overflow=hidden;whiteSpace=wrap;html=1;fontSize=16;" vertex="1" parent="Vd45wIL9K_rjo-z1Z2vt-110">
          <mxGeometry x="40.00000000000006" width="159.99999999999994" height="40" as="geometry">
            <mxRectangle width="159.99999999999994" height="40" as="alternateBounds" />
          </mxGeometry>
        </mxCell>
        <mxCell id="Vd45wIL9K_rjo-z1Z2vt-131" value="Community" style="shape=table;startSize=40;container=1;collapsible=1;childLayout=tableLayout;fixedRows=1;rowLines=0;fontStyle=1;align=center;resizeLast=1;html=1;fontSize=16;" vertex="1" parent="1">
          <mxGeometry x="-360" y="120" width="200" height="160" as="geometry" />
        </mxCell>
        <mxCell id="Vd45wIL9K_rjo-z1Z2vt-132" value="" style="shape=tableRow;horizontal=0;startSize=0;swimlaneHead=0;swimlaneBody=0;fillColor=none;collapsible=0;dropTarget=0;points=[[0,0.5],[1,0.5]];portConstraint=eastwest;top=0;left=0;right=0;bottom=1;fontSize=16;" vertex="1" parent="Vd45wIL9K_rjo-z1Z2vt-131">
          <mxGeometry y="40" width="200" height="40" as="geometry" />
        </mxCell>
        <mxCell id="Vd45wIL9K_rjo-z1Z2vt-133" value="PK" style="shape=partialRectangle;connectable=0;fillColor=none;top=0;left=0;bottom=0;right=0;fontStyle=1;overflow=hidden;whiteSpace=wrap;html=1;fontSize=16;" vertex="1" parent="Vd45wIL9K_rjo-z1Z2vt-132">
          <mxGeometry width="40.00000000000006" height="40" as="geometry">
            <mxRectangle width="40.00000000000006" height="40" as="alternateBounds" />
          </mxGeometry>
        </mxCell>
        <mxCell id="Vd45wIL9K_rjo-z1Z2vt-134" value="Id" style="shape=partialRectangle;connectable=0;fillColor=none;top=0;left=0;bottom=0;right=0;align=left;spacingLeft=6;fontStyle=5;overflow=hidden;whiteSpace=wrap;html=1;fontSize=16;" vertex="1" parent="Vd45wIL9K_rjo-z1Z2vt-132">
          <mxGeometry x="40.00000000000006" width="159.99999999999994" height="40" as="geometry">
            <mxRectangle width="159.99999999999994" height="40" as="alternateBounds" />
          </mxGeometry>
        </mxCell>
        <mxCell id="Vd45wIL9K_rjo-z1Z2vt-135" value="" style="shape=tableRow;horizontal=0;startSize=0;swimlaneHead=0;swimlaneBody=0;fillColor=none;collapsible=0;dropTarget=0;points=[[0,0.5],[1,0.5]];portConstraint=eastwest;top=0;left=0;right=0;bottom=0;fontSize=16;" vertex="1" parent="Vd45wIL9K_rjo-z1Z2vt-131">
          <mxGeometry y="80" width="200" height="40" as="geometry" />
        </mxCell>
        <mxCell id="Vd45wIL9K_rjo-z1Z2vt-136" value="" style="shape=partialRectangle;connectable=0;fillColor=none;top=0;left=0;bottom=0;right=0;editable=1;overflow=hidden;whiteSpace=wrap;html=1;fontSize=16;" vertex="1" parent="Vd45wIL9K_rjo-z1Z2vt-135">
          <mxGeometry width="40.00000000000006" height="40" as="geometry">
            <mxRectangle width="40.00000000000006" height="40" as="alternateBounds" />
          </mxGeometry>
        </mxCell>
        <mxCell id="Vd45wIL9K_rjo-z1Z2vt-137" value="Name" style="shape=partialRectangle;connectable=0;fillColor=none;top=0;left=0;bottom=0;right=0;align=left;spacingLeft=6;overflow=hidden;whiteSpace=wrap;html=1;fontSize=16;" vertex="1" parent="Vd45wIL9K_rjo-z1Z2vt-135">
          <mxGeometry x="40.00000000000006" width="159.99999999999994" height="40" as="geometry">
            <mxRectangle width="159.99999999999994" height="40" as="alternateBounds" />
          </mxGeometry>
        </mxCell>
        <mxCell id="Vd45wIL9K_rjo-z1Z2vt-138" style="shape=tableRow;horizontal=0;startSize=0;swimlaneHead=0;swimlaneBody=0;fillColor=none;collapsible=0;dropTarget=0;points=[[0,0.5],[1,0.5]];portConstraint=eastwest;top=0;left=0;right=0;bottom=0;fontSize=16;" vertex="1" parent="Vd45wIL9K_rjo-z1Z2vt-131">
          <mxGeometry y="120" width="200" height="40" as="geometry" />
        </mxCell>
        <mxCell id="Vd45wIL9K_rjo-z1Z2vt-139" style="shape=partialRectangle;connectable=0;fillColor=none;top=0;left=0;bottom=0;right=0;editable=1;overflow=hidden;whiteSpace=wrap;html=1;fontSize=16;" vertex="1" parent="Vd45wIL9K_rjo-z1Z2vt-138">
          <mxGeometry width="40.00000000000006" height="40" as="geometry">
            <mxRectangle width="40.00000000000006" height="40" as="alternateBounds" />
          </mxGeometry>
        </mxCell>
        <mxCell id="Vd45wIL9K_rjo-z1Z2vt-140" value="Location" style="shape=partialRectangle;connectable=0;fillColor=none;top=0;left=0;bottom=0;right=0;align=left;spacingLeft=6;overflow=hidden;whiteSpace=wrap;html=1;fontSize=16;" vertex="1" parent="Vd45wIL9K_rjo-z1Z2vt-138">
          <mxGeometry x="40.00000000000006" width="159.99999999999994" height="40" as="geometry">
            <mxRectangle width="159.99999999999994" height="40" as="alternateBounds" />
          </mxGeometry>
        </mxCell>
        <mxCell id="Vd45wIL9K_rjo-z1Z2vt-141" value="Res. Community, User" style="shape=table;startSize=40;container=1;collapsible=1;childLayout=tableLayout;fixedRows=1;rowLines=0;fontStyle=1;align=center;resizeLast=1;html=1;fontSize=16;" vertex="1" parent="1">
          <mxGeometry x="-360" y="360" width="200" height="200" as="geometry" />
        </mxCell>
        <mxCell id="Vd45wIL9K_rjo-z1Z2vt-142" value="" style="shape=tableRow;horizontal=0;startSize=0;swimlaneHead=0;swimlaneBody=0;fillColor=none;collapsible=0;dropTarget=0;points=[[0,0.5],[1,0.5]];portConstraint=eastwest;top=0;left=0;right=0;bottom=1;fontSize=16;" vertex="1" parent="Vd45wIL9K_rjo-z1Z2vt-141">
          <mxGeometry y="40" width="200" height="40" as="geometry" />
        </mxCell>
        <mxCell id="Vd45wIL9K_rjo-z1Z2vt-143" value="PK" style="shape=partialRectangle;connectable=0;fillColor=none;top=0;left=0;bottom=0;right=0;fontStyle=1;overflow=hidden;whiteSpace=wrap;html=1;fontSize=16;" vertex="1" parent="Vd45wIL9K_rjo-z1Z2vt-142">
          <mxGeometry width="40.00000000000006" height="40" as="geometry">
            <mxRectangle width="40.00000000000006" height="40" as="alternateBounds" />
          </mxGeometry>
        </mxCell>
        <mxCell id="Vd45wIL9K_rjo-z1Z2vt-144" value="Id" style="shape=partialRectangle;connectable=0;fillColor=none;top=0;left=0;bottom=0;right=0;align=left;spacingLeft=6;fontStyle=5;overflow=hidden;whiteSpace=wrap;html=1;fontSize=16;" vertex="1" parent="Vd45wIL9K_rjo-z1Z2vt-142">
          <mxGeometry x="40.00000000000006" width="159.99999999999994" height="40" as="geometry">
            <mxRectangle width="159.99999999999994" height="40" as="alternateBounds" />
          </mxGeometry>
        </mxCell>
        <mxCell id="Vd45wIL9K_rjo-z1Z2vt-145" value="" style="shape=tableRow;horizontal=0;startSize=0;swimlaneHead=0;swimlaneBody=0;fillColor=none;collapsible=0;dropTarget=0;points=[[0,0.5],[1,0.5]];portConstraint=eastwest;top=0;left=0;right=0;bottom=0;fontSize=16;" vertex="1" parent="Vd45wIL9K_rjo-z1Z2vt-141">
          <mxGeometry y="80" width="200" height="40" as="geometry" />
        </mxCell>
        <mxCell id="Vd45wIL9K_rjo-z1Z2vt-146" value="" style="shape=partialRectangle;connectable=0;fillColor=none;top=0;left=0;bottom=0;right=0;editable=1;overflow=hidden;whiteSpace=wrap;html=1;fontSize=16;" vertex="1" parent="Vd45wIL9K_rjo-z1Z2vt-145">
          <mxGeometry width="40.00000000000006" height="40" as="geometry">
            <mxRectangle width="40.00000000000006" height="40" as="alternateBounds" />
          </mxGeometry>
        </mxCell>
        <mxCell id="Vd45wIL9K_rjo-z1Z2vt-147" value="Group Id" style="shape=partialRectangle;connectable=0;fillColor=none;top=0;left=0;bottom=0;right=0;align=left;spacingLeft=6;overflow=hidden;whiteSpace=wrap;html=1;fontSize=16;" vertex="1" parent="Vd45wIL9K_rjo-z1Z2vt-145">
          <mxGeometry x="40.00000000000006" width="159.99999999999994" height="40" as="geometry">
            <mxRectangle width="159.99999999999994" height="40" as="alternateBounds" />
          </mxGeometry>
        </mxCell>
        <mxCell id="Vd45wIL9K_rjo-z1Z2vt-148" style="shape=tableRow;horizontal=0;startSize=0;swimlaneHead=0;swimlaneBody=0;fillColor=none;collapsible=0;dropTarget=0;points=[[0,0.5],[1,0.5]];portConstraint=eastwest;top=0;left=0;right=0;bottom=0;fontSize=16;" vertex="1" parent="Vd45wIL9K_rjo-z1Z2vt-141">
          <mxGeometry y="120" width="200" height="40" as="geometry" />
        </mxCell>
        <mxCell id="Vd45wIL9K_rjo-z1Z2vt-149" style="shape=partialRectangle;connectable=0;fillColor=none;top=0;left=0;bottom=0;right=0;editable=1;overflow=hidden;whiteSpace=wrap;html=1;fontSize=16;" vertex="1" parent="Vd45wIL9K_rjo-z1Z2vt-148">
          <mxGeometry width="40.00000000000006" height="40" as="geometry">
            <mxRectangle width="40.00000000000006" height="40" as="alternateBounds" />
          </mxGeometry>
        </mxCell>
        <mxCell id="Vd45wIL9K_rjo-z1Z2vt-150" value="User Id" style="shape=partialRectangle;connectable=0;fillColor=none;top=0;left=0;bottom=0;right=0;align=left;spacingLeft=6;overflow=hidden;whiteSpace=wrap;html=1;fontSize=16;" vertex="1" parent="Vd45wIL9K_rjo-z1Z2vt-148">
          <mxGeometry x="40.00000000000006" width="159.99999999999994" height="40" as="geometry">
            <mxRectangle width="159.99999999999994" height="40" as="alternateBounds" />
          </mxGeometry>
        </mxCell>
        <mxCell id="Vd45wIL9K_rjo-z1Z2vt-151" style="shape=tableRow;horizontal=0;startSize=0;swimlaneHead=0;swimlaneBody=0;fillColor=none;collapsible=0;dropTarget=0;points=[[0,0.5],[1,0.5]];portConstraint=eastwest;top=0;left=0;right=0;bottom=0;fontSize=16;" vertex="1" parent="Vd45wIL9K_rjo-z1Z2vt-141">
          <mxGeometry y="160" width="200" height="40" as="geometry" />
        </mxCell>
        <mxCell id="Vd45wIL9K_rjo-z1Z2vt-152" style="shape=partialRectangle;connectable=0;fillColor=none;top=0;left=0;bottom=0;right=0;editable=1;overflow=hidden;whiteSpace=wrap;html=1;fontSize=16;" vertex="1" parent="Vd45wIL9K_rjo-z1Z2vt-151">
          <mxGeometry width="40.00000000000006" height="40" as="geometry">
            <mxRectangle width="40.00000000000006" height="40" as="alternateBounds" />
          </mxGeometry>
        </mxCell>
        <mxCell id="Vd45wIL9K_rjo-z1Z2vt-153" value="Position" style="shape=partialRectangle;connectable=0;fillColor=none;top=0;left=0;bottom=0;right=0;align=left;spacingLeft=6;overflow=hidden;whiteSpace=wrap;html=1;fontSize=16;" vertex="1" parent="Vd45wIL9K_rjo-z1Z2vt-151">
          <mxGeometry x="40.00000000000006" width="159.99999999999994" height="40" as="geometry">
            <mxRectangle width="159.99999999999994" height="40" as="alternateBounds" />
          </mxGeometry>
        </mxCell>
        <mxCell id="Vd45wIL9K_rjo-z1Z2vt-154" value="Post" style="shape=table;startSize=40;container=1;collapsible=1;childLayout=tableLayout;fixedRows=1;rowLines=0;fontStyle=1;align=center;resizeLast=1;html=1;fontSize=16;" vertex="1" parent="1">
          <mxGeometry x="-360" y="-240" width="200" height="160" as="geometry" />
        </mxCell>
        <mxCell id="Vd45wIL9K_rjo-z1Z2vt-155" value="" style="shape=tableRow;horizontal=0;startSize=0;swimlaneHead=0;swimlaneBody=0;fillColor=none;collapsible=0;dropTarget=0;points=[[0,0.5],[1,0.5]];portConstraint=eastwest;top=0;left=0;right=0;bottom=1;fontSize=16;" vertex="1" parent="Vd45wIL9K_rjo-z1Z2vt-154">
          <mxGeometry y="40" width="200" height="40" as="geometry" />
        </mxCell>
        <mxCell id="Vd45wIL9K_rjo-z1Z2vt-156" value="PK" style="shape=partialRectangle;connectable=0;fillColor=none;top=0;left=0;bottom=0;right=0;fontStyle=1;overflow=hidden;whiteSpace=wrap;html=1;fontSize=16;" vertex="1" parent="Vd45wIL9K_rjo-z1Z2vt-155">
          <mxGeometry width="40.00000000000006" height="40" as="geometry">
            <mxRectangle width="40.00000000000006" height="40" as="alternateBounds" />
          </mxGeometry>
        </mxCell>
        <mxCell id="Vd45wIL9K_rjo-z1Z2vt-157" value="Id" style="shape=partialRectangle;connectable=0;fillColor=none;top=0;left=0;bottom=0;right=0;align=left;spacingLeft=6;fontStyle=5;overflow=hidden;whiteSpace=wrap;html=1;fontSize=16;" vertex="1" parent="Vd45wIL9K_rjo-z1Z2vt-155">
          <mxGeometry x="40.00000000000006" width="159.99999999999994" height="40" as="geometry">
            <mxRectangle width="159.99999999999994" height="40" as="alternateBounds" />
          </mxGeometry>
        </mxCell>
        <mxCell id="Vd45wIL9K_rjo-z1Z2vt-158" value="" style="shape=tableRow;horizontal=0;startSize=0;swimlaneHead=0;swimlaneBody=0;fillColor=none;collapsible=0;dropTarget=0;points=[[0,0.5],[1,0.5]];portConstraint=eastwest;top=0;left=0;right=0;bottom=0;fontSize=16;" vertex="1" parent="Vd45wIL9K_rjo-z1Z2vt-154">
          <mxGeometry y="80" width="200" height="40" as="geometry" />
        </mxCell>
        <mxCell id="Vd45wIL9K_rjo-z1Z2vt-159" value="" style="shape=partialRectangle;connectable=0;fillColor=none;top=0;left=0;bottom=0;right=0;editable=1;overflow=hidden;whiteSpace=wrap;html=1;fontSize=16;" vertex="1" parent="Vd45wIL9K_rjo-z1Z2vt-158">
          <mxGeometry width="40.00000000000006" height="40" as="geometry">
            <mxRectangle width="40.00000000000006" height="40" as="alternateBounds" />
          </mxGeometry>
        </mxCell>
        <mxCell id="Vd45wIL9K_rjo-z1Z2vt-160" value="Poster" style="shape=partialRectangle;connectable=0;fillColor=none;top=0;left=0;bottom=0;right=0;align=left;spacingLeft=6;overflow=hidden;whiteSpace=wrap;html=1;fontSize=16;" vertex="1" parent="Vd45wIL9K_rjo-z1Z2vt-158">
          <mxGeometry x="40.00000000000006" width="159.99999999999994" height="40" as="geometry">
            <mxRectangle width="159.99999999999994" height="40" as="alternateBounds" />
          </mxGeometry>
        </mxCell>
        <mxCell id="Vd45wIL9K_rjo-z1Z2vt-161" style="shape=tableRow;horizontal=0;startSize=0;swimlaneHead=0;swimlaneBody=0;fillColor=none;collapsible=0;dropTarget=0;points=[[0,0.5],[1,0.5]];portConstraint=eastwest;top=0;left=0;right=0;bottom=0;fontSize=16;" vertex="1" parent="Vd45wIL9K_rjo-z1Z2vt-154">
          <mxGeometry y="120" width="200" height="40" as="geometry" />
        </mxCell>
        <mxCell id="Vd45wIL9K_rjo-z1Z2vt-162" style="shape=partialRectangle;connectable=0;fillColor=none;top=0;left=0;bottom=0;right=0;editable=1;overflow=hidden;whiteSpace=wrap;html=1;fontSize=16;" vertex="1" parent="Vd45wIL9K_rjo-z1Z2vt-161">
          <mxGeometry width="40.00000000000006" height="40" as="geometry">
            <mxRectangle width="40.00000000000006" height="40" as="alternateBounds" />
          </mxGeometry>
        </mxCell>
        <mxCell id="Vd45wIL9K_rjo-z1Z2vt-163" value="Creation Date" style="shape=partialRectangle;connectable=0;fillColor=none;top=0;left=0;bottom=0;right=0;align=left;spacingLeft=6;overflow=hidden;whiteSpace=wrap;html=1;fontSize=16;" vertex="1" parent="Vd45wIL9K_rjo-z1Z2vt-161">
          <mxGeometry x="40.00000000000006" width="159.99999999999994" height="40" as="geometry">
            <mxRectangle width="159.99999999999994" height="40" as="alternateBounds" />
          </mxGeometry>
        </mxCell>
      </root>
    </mxGraphModel>
  </diagram>
</mxfile>
